
<svg width="21" height="21" viewBox="0 0 21 21" fill="none" xmlns="http://www.w3.org/2000/svg">
<path fill-rule="evenodd" clip-rule="evenodd" d="M5.60035 1.90954C6.44464 1.84213 7.24614 1.51005 7.89071 0.960583C8.61871 0.340535 9.54373 0 10.5 0C11.4563 0 12.3813 0.340535 13.1093 0.960583C13.7539 1.51005 14.5554 1.84213 15.3996 1.90954C16.3531 1.98574 17.2482 2.39906 17.9246 3.07541C18.6009 3.75175 19.0143 4.64689 19.0905 5.60035C19.1574 6.4443 19.4895 7.24626 20.0394 7.89071C20.6595 8.61871 21 9.54373 21 10.5C21 11.4563 20.6595 12.3813 20.0394 13.1093C19.49 13.7539 19.1579 14.5554 19.0905 15.3996C19.0143 16.3531 18.6009 17.2482 17.9246 17.9246C17.2482 18.6009 16.3531 19.0143 15.3996 19.0905C14.5554 19.1579 13.7539 19.49 13.1093 20.0394C12.3813 20.6595 11.4563 21 10.5 21C9.54373 21 8.61871 20.6595 7.89071 20.0394C7.24614 19.49 6.44464 19.1579 5.60035 19.0905C4.64689 19.0143 3.75175 18.6009 3.07541 17.9246C2.39906 17.2482 1.98574 16.3531 1.90954 15.3996C1.84213 14.5554 1.51005 13.7539 0.960583 13.1093C0.340535 12.3813 0 11.4563 0 10.5C0 9.54373 0.340535 8.61871 0.960583 7.89071C1.51005 7.24614 1.84213 6.44464 1.90954 5.60035C1.98574 4.64689 2.39906 3.75175 3.07541 3.07541C3.75175 2.39906 4.64689 1.98574 5.60035 1.90954ZM15.3655 8.80291C15.6046 8.55536 15.7369 8.22382 15.7339 7.87968C15.7309 7.53554 15.5929 7.20634 15.3495 6.96299C15.1062 6.71964 14.777 6.5816 14.4328 6.57861C14.0887 6.57562 13.7572 6.70791 13.5096 6.947L9.18748 11.2691L7.49039 9.57205C7.24284 9.33296 6.91129 9.20067 6.56715 9.20366C6.22301 9.20665 5.89382 9.34468 5.65047 9.58804C5.40711 9.83139 5.26908 10.1606 5.26609 10.5047C5.2631 10.8489 5.39539 11.1804 5.63448 11.428L8.25952 14.053C8.50566 14.2991 8.83944 14.4373 9.18748 14.4373C9.53551 14.4373 9.8693 14.2991 10.1154 14.053L15.3655 8.80291Z" fill="#311B90"/>
</svg>
